<?xml version="1.0" encoding="UTF-8" standalone="no"?>
<!-- Created with Inkscape (http://www.inkscape.org/) -->

<svg
   xmlns:dc="http://purl.org/dc/elements/1.1/"
   xmlns:cc="http://creativecommons.org/ns#"
   xmlns:rdf="http://www.w3.org/1999/02/22-rdf-syntax-ns#"
   xmlns:svg="http://www.w3.org/2000/svg"
   xmlns="http://www.w3.org/2000/svg"
   xmlns:sodipodi="http://sodipodi.sourceforge.net/DTD/sodipodi-0.dtd"
   xmlns:inkscape="http://www.inkscape.org/namespaces/inkscape"
   width="59.999958"
   height="59.999954"
   viewBox="0 0 59.999958 59.999954"
   id="svg2"
   version="1.1"
   inkscape:version="0.91 r13725"
   sodipodi:docname="connect.svg">
  <defs
     id="defs4" />
  <sodipodi:namedview
     id="base"
     pagecolor="#ffffff"
     bordercolor="#666666"
     borderopacity="1.0"
     inkscape:pageopacity="0.0"
     inkscape:pageshadow="2"
     inkscape:zoom="2.8"
     inkscape:cx="-18.820587"
     inkscape:cy="44.888023"
     inkscape:document-units="px"
     inkscape:current-layer="layer1"
     showgrid="false"
     units="px"
     showguides="true"
     inkscape:window-width="1366"
     inkscape:window-height="706"
     inkscape:window-x="-8"
     inkscape:window-y="-8"
     inkscape:window-maximized="1"
     fit-margin-top="0"
     fit-margin-left="0"
     fit-margin-right="0"
     fit-margin-bottom="0" />
  <metadata
     id="metadata7">
    <rdf:RDF>
      <cc:Work
         rdf:about="">
        <dc:format>image/svg+xml</dc:format>
        <dc:type
           rdf:resource="http://purl.org/dc/dcmitype/StillImage" />
        <dc:title></dc:title>
      </cc:Work>
    </rdf:RDF>
  </metadata>
  <g
     inkscape:label="レイヤー 1"
     inkscape:groupmode="layer"
     id="layer1"
     transform="translate(8.4153194e-4,-992.36301)">
    <path
       style="fill:#b2b2b2;fill-opacity:1;stroke:#808080;stroke-width:1.77395642;stroke-miterlimit:4;stroke-dasharray:none;stroke-opacity:0"
       d="m 0.88629743,1023.2464 0,7.4785 a 20.772053,20.772053 0 0 1 20.74803357,20.748 l 7.478511,0 A 28.225965,28.226024 0 0 0 0.88629743,1023.2464 Z"
       id="path4155"
       inkscape:connector-curvature="0" />
    <path
       style="fill:#b2b2b2;fill-opacity:1;stroke:#808080;stroke-width:2.66093469;stroke-miterlimit:4;stroke-dasharray:none;stroke-opacity:0"
       d="m 1.3306331,1008.6927 -9.766e-4,42.3398 42.3398175,0 A 42.33894,42.339039 0 0 0 1.3306331,1008.6927 Z m 0.1093749,7.6103 a 34.620088,34.620088 0 0 1 34.619119,34.6201 l -34.619119,0 0,-34.6201 z"
       id="path4155-6"
       inkscape:connector-curvature="0" />
    <path
       style="fill:#b2b2b2;fill-opacity:1;stroke:#808080;stroke-width:3.54791689;stroke-miterlimit:4;stroke-dasharray:none;stroke-opacity:0"
       d="m 1.7739922,994.137 0,56.4511 56.4511358,0 A 56.452044,56.452044 0 0 0 1.7739922,994.137 Z m 0.2412108,7.7412 a 48.468128,48.468125 0 0 1 48.468719,48.4687 l -48.468719,0 0,-48.4687 z"
       id="path4155-3"
       inkscape:connector-curvature="0" />
  </g>
</svg>
